<mxfile host="65bd71144e">
    <diagram id="86jPcfIjYjlKc2B4Hxd_" name="Page-1">
        <mxGraphModel dx="853" dy="846" grid="1" gridSize="10" guides="1" tooltips="1" connect="1" arrows="1" fold="1" page="1" pageScale="1" pageWidth="827" pageHeight="1169" math="0" shadow="0">
            <root>
                <mxCell id="0"/>
                <mxCell id="1" parent="0"/>
                <mxCell id="3" value="" style="sketch=0;outlineConnect=0;fontColor=#232F3E;gradientColor=none;fillColor=#3F8624;strokeColor=none;dashed=0;verticalLabelPosition=bottom;verticalAlign=top;align=center;html=1;fontSize=12;fontStyle=0;aspect=fixed;pointerEvents=1;shape=mxgraph.aws4.house;" vertex="1" parent="1">
                    <mxGeometry x="150" y="270" width="78" height="78" as="geometry"/>
                </mxCell>
                <mxCell id="4" value="" style="image;html=1;image=img/lib/clip_art/people/Doctor_Woman_128x128.png" vertex="1" parent="1">
                    <mxGeometry x="540" y="180" width="80" height="80" as="geometry"/>
                </mxCell>
                <mxCell id="5" value="" style="shape=mxgraph.signs.healthcare.out_patient;html=1;pointerEvents=1;fillColor=#000000;strokeColor=none;verticalLabelPosition=bottom;verticalAlign=top;align=center;" vertex="1" parent="1">
                    <mxGeometry x="430" y="570" width="56" height="99" as="geometry"/>
                </mxCell>
                <mxCell id="6" value="unit_id" style="ellipse;shape=cloud;whiteSpace=wrap;html=1;" vertex="1" parent="1">
                    <mxGeometry x="10" y="210" width="120" height="80" as="geometry"/>
                </mxCell>
                <mxCell id="7" value="unit_name" style="ellipse;shape=cloud;whiteSpace=wrap;html=1;" vertex="1" parent="1">
                    <mxGeometry x="90" y="140" width="120" height="80" as="geometry"/>
                </mxCell>
                <mxCell id="8" value="floor" style="ellipse;shape=cloud;whiteSpace=wrap;html=1;" vertex="1" parent="1">
                    <mxGeometry x="220" y="160" width="120" height="80" as="geometry"/>
                </mxCell>
                <mxCell id="9" value="" style="ellipse;shape=cloud;whiteSpace=wrap;html=1;" vertex="1" parent="1">
                    <mxGeometry x="260" y="260" width="120" height="80" as="geometry"/>
                </mxCell>
                <mxCell id="10" value="doctor_id" style="ellipse;shape=cloud;whiteSpace=wrap;html=1;" vertex="1" parent="1">
                    <mxGeometry x="460" y="60" width="120" height="80" as="geometry"/>
                </mxCell>
                <mxCell id="11" value="fName" style="ellipse;shape=cloud;whiteSpace=wrap;html=1;" vertex="1" parent="1">
                    <mxGeometry x="590" y="90" width="120" height="80" as="geometry"/>
                </mxCell>
                <mxCell id="12" value="lName" style="ellipse;shape=cloud;whiteSpace=wrap;html=1;" vertex="1" parent="1">
                    <mxGeometry x="660" y="180" width="120" height="80" as="geometry"/>
                </mxCell>
                <mxCell id="13" value="speciality" style="ellipse;shape=cloud;whiteSpace=wrap;html=1;" vertex="1" parent="1">
                    <mxGeometry x="590" y="280" width="120" height="80" as="geometry"/>
                </mxCell>
                <mxCell id="14" value="patient_id" style="ellipse;shape=cloud;whiteSpace=wrap;html=1;" vertex="1" parent="1">
                    <mxGeometry x="270" y="530" width="120" height="80" as="geometry"/>
                </mxCell>
                <mxCell id="15" value="condition" style="ellipse;shape=cloud;whiteSpace=wrap;html=1;" vertex="1" parent="1">
                    <mxGeometry x="366" y="450" width="120" height="80" as="geometry"/>
                </mxCell>
                <mxCell id="16" value="treatment" style="ellipse;shape=cloud;whiteSpace=wrap;html=1;" vertex="1" parent="1">
                    <mxGeometry x="510" y="480" width="120" height="80" as="geometry"/>
                </mxCell>
                <mxCell id="17" value="social_sec_num" style="ellipse;shape=cloud;whiteSpace=wrap;html=1;" vertex="1" parent="1">
                    <mxGeometry x="550" y="589" width="120" height="80" as="geometry"/>
                </mxCell>
                <mxCell id="18" value="age" style="ellipse;shape=cloud;whiteSpace=wrap;html=1;" vertex="1" parent="1">
                    <mxGeometry x="486" y="680" width="120" height="80" as="geometry"/>
                </mxCell>
                <mxCell id="19" value="admission_date" style="ellipse;shape=cloud;whiteSpace=wrap;html=1;" vertex="1" parent="1">
                    <mxGeometry x="294" y="660" width="120" height="80" as="geometry"/>
                </mxCell>
            </root>
        </mxGraphModel>
    </diagram>
</mxfile>